<svg xmlns="http://www.w3.org/2000/svg" viewBox="0 0 320 220" role="img" aria-labelledby="title">
  <title id="title">Vidyasetu AI logo</title>
  <defs>
    <linearGradient id="background" x1="0" x2="1" y1="0" y2="1">
      <stop offset="0" stop-color="#0f766e"/>
      <stop offset="1" stop-color="#2563eb"/>
    </linearGradient>
  </defs>
  <rect x="35" y="28" width="250" height="164" rx="28" fill="url(#background)"/>
  <path d="M78 103c24-20 49-20 73 0v55c-24-20-49-20-73 0zM151 103c24-20 49-20 73 0v55c-24-20-49-20-73 0z" fill="#fff" opacity=".95"/>
  <path d="M151 103v55" stroke="#bfdbfe" stroke-width="5"/>
  <circle cx="221" cy="67" r="24" fill="#fbbf24"/>
  <path d="m221 50 5 12 13 1-10 9 3 13-11-7-11 7 3-13-10-9 13-1z" fill="#fff"/>
  <text x="160" y="184" fill="#fff" font-family="Arial, sans-serif" font-size="20" font-weight="700" text-anchor="middle">VIDYASETU AI</text>
</svg>